<svg xmlns="http://www.w3.org/2000/svg" width="512" height="512" viewBox="0 0 512 512" role="img" aria-label="WeatherGlass golden sun">
<defs>
<linearGradient id="sky" x1="0" y1="0" x2="1" y2="1"><stop stop-color="#60c9f0"/><stop offset=".5" stop-color="#167ed1"/><stop offset="1" stop-color="#164c9a"/></linearGradient>
<radialGradient id="sun" cx=".35" cy=".25" r=".85"><stop stop-color="#fff6b0"/><stop offset=".5" stop-color="#ffd45c"/><stop offset="1" stop-color="#ffad32"/></radialGradient>
<linearGradient id="glass" x1="0" y1="0" x2="0" y2="1"><stop stop-color="white" stop-opacity=".32"/><stop offset="1" stop-color="white" stop-opacity="0"/></linearGradient>
</defs>
<rect x="8" y="8" width="496" height="496" rx="110" fill="url(#sky)"/>
<rect x="13" y="13" width="486" height="486" rx="105" fill="none" stroke="#d1f3ff" stroke-opacity=".55" stroke-width="6"/>
<path d="M26 182V120Q26 26 120 26H392Q486 26 486 120V182Q256 260 26 182Z" fill="url(#glass)"/>
<g stroke="#ffe28a" stroke-width="25" stroke-linecap="round">
<path d="M256 94V126M256 386V418M94 256H126M386 256H418M141 141L164 164M348 348L371 371M141 371L164 348M348 164L371 141"/>
</g>
<circle cx="256" cy="262" r="95" fill="#0c4e95" opacity=".18"/>
<circle cx="256" cy="256" r="95" fill="url(#sun)" stroke="#fff0ac" stroke-width="5"/>
<path d="M187 223A76 76 0 0 1 278 183" fill="none" stroke="#fff9da" stroke-opacity=".7" stroke-width="10" stroke-linecap="round"/>
</svg>